<svg id="Capa_1" enable-background="new 0 0 512 512" height="512" viewBox="0 0 512 512" width="512" xmlns="http://www.w3.org/2000/svg"><g><path d="m181 426.667h150v30h-150z" fill="#6b5675"/><path d="m474.5 40.333h-30v341.333h30c16.569 0 30-13.431 30-30v-281.333c0-16.568-13.431-30-30-30z" fill="#5a4763"/><path d="m474.5 351.667v-281.334c0-16.569-13.431-30-30-30h-407c-16.569 0-30 13.431-30 30v281.333c0 16.569 13.431 30 30 30h407c16.569.001 30-13.431 30-29.999z" fill="#6b5675"/><path d="m256 70.333v125.667c34.702 0 62.833-28.131 62.833-62.833s-28.131-62.834-62.833-62.834z" fill="#fc6723"/><path d="m288.833 133.167c0-34.702-14.7-62.833-32.833-62.833-34.702 0-62.833 28.132-62.833 62.833 0 34.702 28.131 62.833 62.833 62.833 18.133 0 32.833-28.131 32.833-62.833z" fill="#ff802b"/><path d="m100.333 70.333v125.667c34.702 0 62.833-28.131 62.833-62.833.001-34.702-28.131-62.834-62.833-62.834z" fill="#f5c476"/><path d="m133.166 133.167c0-34.702-14.7-62.833-32.833-62.833-34.702 0-62.833 28.132-62.833 62.833 0 34.702 28.131 62.833 62.833 62.833 18.133 0 32.833-28.131 32.833-62.833z" fill="#ffd98c"/><path d="m474.5 411.667h-30v60h30c16.57 0 30-13.43 30-30s-13.43-30-30-30z" fill="#fc6723"/><path d="m444.5 411.667c16.57 0 30 13.43 30 30s-13.43 30-30 30h-30l-30-30 30-30z" fill="#ff802b"/><path d="m97.5 411.667 30 30-30 30h-60c-16.57 0-30-13.43-30-30s13.43-30 30-30z" fill="#ff802b"/><path d="m127.5 412.137 30 29.53-30 29.52c-3.56.32-7.12.48-10.69.48h-19.31v-60h19.31c3.57 0 7.13.16 10.69.47z" fill="#ffecb5"/><path d="m414.5 411.667v60h-19.31c-3.57 0-7.13-.16-10.69-.48l-30-29.525 30-29.525c3.56-.31 7.12-.47 10.69-.47z" fill="#ffecb5"/><path d="m384.5 412.137v59.05c-3.52-.32-7.03-.79-10.52-1.41l-72.98-13.11v-30l72.98-13.11c3.49-.63 7-1.1 10.52-1.42z" fill="#ffd98c"/><path d="m211 426.667v30l-72.98 13.11c-3.49.62-7 1.09-10.52 1.41v-59.05c3.52.32 7.03.79 10.52 1.42z" fill="#ffd98c"/><path d="m411.667 70.333v125.667c34.702 0 62.833-28.131 62.833-62.833s-28.131-62.834-62.833-62.834z" fill="#cb85f2"/><path d="m444.5 133.167c0-34.702-14.7-62.833-32.833-62.833-34.702 0-62.833 28.132-62.833 62.833 0 34.702 28.131 62.833 62.833 62.833 18.133 0 32.833-28.131 32.833-62.833z" fill="#cda5e5"/><path d="m256 226v125.667c34.702 0 62.833-28.131 62.833-62.833s-28.131-62.834-62.833-62.834z" fill="#d62211"/><path d="m288.833 288.833c0-34.702-14.7-62.833-32.833-62.833-34.702 0-62.833 28.132-62.833 62.833 0 34.702 28.131 62.833 62.833 62.833 18.133.001 32.833-28.13 32.833-62.833z" fill="#f0311a"/><path d="m100.333 226v125.667c34.702 0 62.833-28.131 62.833-62.833.001-34.702-28.131-62.834-62.833-62.834z" fill="#959648"/><path d="m133.166 288.833c0-34.702-14.7-62.833-32.833-62.833-34.702 0-62.833 28.132-62.833 62.833 0 34.702 28.131 62.833 62.833 62.833 18.133.001 32.833-28.13 32.833-62.833z" fill="#baa04c"/><path d="m411.667 226v125.667c34.702 0 62.833-28.131 62.833-62.833s-28.131-62.834-62.833-62.834z" fill="#a540db"/><path d="m444.5 288.833c0-34.702-14.7-62.833-32.833-62.833-34.702 0-62.833 28.132-62.833 62.833 0 34.702 28.131 62.833 62.833 62.833 18.133.001 32.833-28.131 32.833-62.833z" fill="#b64df0"/><path d="m474.5 32.833h-437c-20.678 0-37.5 16.822-37.5 37.5v125.667c0 4.143 3.358 7.5 7.5 7.5s7.5-3.357 7.5-7.5v-125.667c0-12.406 10.093-22.5 22.5-22.5h437c12.407 0 22.5 10.094 22.5 22.5v281.334c0 12.406-10.093 22.5-22.5 22.5h-437c-12.407 0-22.5-10.094-22.5-22.5v-125.667c0-4.143-3.358-7.5-7.5-7.5s-7.5 3.357-7.5 7.5v125.667c0 20.678 16.822 37.5 37.5 37.5h437c20.678 0 37.5-16.822 37.5-37.5v-281.334c0-20.678-16.822-37.5-37.5-37.5z"/><path d="m474.5 404.167h-79.307c-7.539 0-15.123.676-22.543 2.009l-72.318 12.991h-88.663l-72.318-12.991c-7.421-1.333-15.005-2.009-22.543-2.009h-79.308c-20.678 0-37.5 16.822-37.5 37.5s16.822 37.5 37.5 37.5h79.307c7.538 0 15.123-.676 22.543-2.009l72.318-12.991h88.663l72.318 12.991c7.42 1.333 15.005 2.009 22.543 2.009h79.308c20.678 0 37.5-16.822 37.5-37.5s-16.822-37.5-37.5-37.5zm-256 30h75v15h-75zm-203.5 7.5c0-12.406 10.093-22.5 22.5-22.5h52.5v45h-52.5c-12.407 0-22.5-10.094-22.5-22.5zm90 22.5v-45h11.807c1.063 0 2.128.041 3.193.071v44.857c-1.065.03-2.13.071-3.193.071h-11.807zm31.698-1.772c-.563.101-1.133.173-1.698.266v-41.987c.565.093 1.135.165 1.698.266l66.802 12v17.455zm171.802-12.001v-17.454l66.802-12c.563-.101 1.133-.173 1.698-.266v41.987c-.565-.093-1.135-.165-1.698-.266zm83.5 13.702v-44.857c1.065-.03 2.13-.071 3.193-.071h11.807v45h-11.807c-1.063-.001-2.128-.042-3.193-.072zm82.5.071h-52.5v-45h52.5c12.407 0 22.5 10.094 22.5 22.5s-10.093 22.5-22.5 22.5z"/><path d="m100.333 203.5c38.782 0 70.333-31.551 70.333-70.333s-31.551-70.334-70.333-70.334-70.333 31.552-70.333 70.334 31.551 70.333 70.333 70.333zm0-125.667c30.511 0 55.333 24.822 55.333 55.334 0 30.511-24.822 55.333-55.333 55.333s-55.333-24.822-55.333-55.333c0-30.512 24.822-55.334 55.333-55.334z"/><path d="m256 203.5c38.782 0 70.333-31.551 70.333-70.333s-31.551-70.334-70.333-70.334-70.333 31.552-70.333 70.334 31.551 70.333 70.333 70.333zm0-125.667c30.511 0 55.333 24.822 55.333 55.334 0 30.511-24.822 55.333-55.333 55.333s-55.333-24.822-55.333-55.333c0-30.512 24.822-55.334 55.333-55.334z"/><path d="m411.667 203.5c38.782 0 70.333-31.551 70.333-70.333s-31.551-70.334-70.333-70.334-70.333 31.552-70.333 70.334 31.551 70.333 70.333 70.333zm0-125.667c30.511 0 55.333 24.822 55.333 55.334 0 30.511-24.822 55.333-55.333 55.333s-55.333-24.822-55.333-55.333c-.001-30.512 24.822-55.334 55.333-55.334z"/><path d="m100.333 359.167c38.782 0 70.333-31.552 70.333-70.334s-31.551-70.333-70.333-70.333-70.333 31.551-70.333 70.333 31.551 70.334 70.333 70.334zm0-125.667c30.511 0 55.333 24.822 55.333 55.333 0 30.512-24.822 55.334-55.333 55.334s-55.333-24.822-55.333-55.334c0-30.511 24.822-55.333 55.333-55.333z"/><path d="m256 359.167c38.782 0 70.333-31.552 70.333-70.334s-31.551-70.333-70.333-70.333-70.333 31.551-70.333 70.333 31.551 70.334 70.333 70.334zm0-125.667c30.511 0 55.333 24.822 55.333 55.333 0 30.512-24.822 55.334-55.333 55.334s-55.333-24.822-55.333-55.334c0-30.511 24.822-55.333 55.333-55.333z"/><path d="m411.667 359.167c38.782 0 70.333-31.552 70.333-70.334s-31.551-70.333-70.333-70.333-70.333 31.551-70.333 70.333 31.551 70.334 70.333 70.334zm0-125.667c30.511 0 55.333 24.822 55.333 55.333 0 30.512-24.822 55.334-55.333 55.334s-55.333-24.822-55.333-55.334c-.001-30.511 24.822-55.333 55.333-55.333z"/></g></svg>