<svg height="464pt" viewBox="0 0 464 464" width="464pt" xmlns="http://www.w3.org/2000/svg"><path d="m464 232c0 128.128906-103.871094 232-232 232s-232-103.871094-232-232 103.871094-232 232-232 232 103.871094 232 232zm0 0" fill="#b4b4b4"/><path d="m232 48c-101.621094 0-184 82.378906-184 184h184zm0 0" fill="#fda2c6"/><path d="m48 232c0 101.621094 82.378906 184 184 184v-184zm0 0" fill="#b79bdc"/><path d="m232 48v184h184c0-101.621094-82.378906-184-184-184zm0 0" fill="#fddf79"/><path d="m232 416c101.621094 0 184-82.378906 184-184h-184zm0 0" fill="#68e3d7"/></svg>